# xmcd
#
# Track frame offsets:
#	150
#	22888
#	33834
#	48211
#	65300
#	86551
#	114255
#	133149
#	152887
#	168043
#
# Disc length: 2473 seconds
#
# Revision: 0
# Processed by: cddbd v1.5.2PL0 Copyright (c) Steve Scherf et al.
# Submitted via: EasyCDDAExtractor 16.0.9.1
#
DISCID=6e09a70a
DTITLE=LP's Blues Band - True Stories
DYEAR=2006
DGENRE=Blues
TTITLE0=The Greatest Of Them All
TTITLE1=Is That Askin' Too Much
TTITLE2=One-Way Love Affair
TTITLE3=Natural Right
TTITLE4=I Used To Be A Prince
TTITLE5=The Last Straw
TTITLE6=Queen Of The Nite
TTITLE7=Out Of My Mind
TTITLE8=The Usual
TTITLE9=Life Without You
EXTD=
EXTT0=
EXTT1=
EXTT2=
EXTT3=
EXTT4=
EXTT5=
EXTT6=
EXTT7=
EXTT8=
EXTT9=
PLAYORDER=
